STARTFONT 2.1
FONT -FreeType-Arial-Bold-R-Normal--33-240-100-100-P-173-ISO10646-1
SIZE 24 100 100
FONTBOUNDINGBOX 28 31 0 -7
COMMENT "Generated by fontforge, http://fontforge.sourceforge.net"
COMMENT ""
COMMENT "Converted from OpenType font "arialbd.ttf" by "otf2bdf 3.0"."
COMMENT ""
STARTPROPERTIES 19
FOUNDRY "FreeType"
FAMILY_NAME "Arial"
WEIGHT_NAME "Bold"
SLANT "R"
SETWIDTH_NAME "Normal"
ADD_STYLE_NAME ""
PIXEL_SIZE 33
POINT_SIZE 240
RESOLUTION_X 100
RESOLUTION_Y 100
SPACING "P"
AVERAGE_WIDTH 173
CHARSET_REGISTRY "ISO10646"
CHARSET_ENCODING "1"
FONT_ASCENT 29
FONT_DESCENT 6
COPYRIGHT "© 2017 The Monotype Corporation. All Rights Reserved.     Hebrew OpenType Layout logic copyright © 2003 & 2007, Ralph Hancock & John Hudson. This layout logic for Biblical Hebrew is open source software under the MIT License; see embedded license description for details."
_OTF_FONTFILE "arialbd.ttf"
_OTF_PSNAME "Arial-BoldMT"
ENDPROPERTIES
CHARS 23
STARTCHAR $0020
ENCODING 32
SWIDTH 270 0
DWIDTH 9 0
BBX 0 0 0 0
BITMAP
ENDCHAR
STARTCHAR $0028
ENCODING 40
SWIDTH 330 0
DWIDTH 11 0
BBX 8 31 2 -7
BITMAP
07
0E
1E
1E
3E
3C
3C
7C
7C
78
F8
F8
F8
F8
F8
F8
F8
F8
F8
F8
78
78
7C
7C
3C
3C
3C
1E
1E
0E
07
ENDCHAR
STARTCHAR $0029
ENCODING 41
SWIDTH 330 0
DWIDTH 11 0
BBX 8 31 1 -7
BITMAP
E0
F0
78
78
7C
3C
3C
3E
3E
1E
1E
1F
1F
1F
1F
1F
1F
1F
1F
1F
1E
1E
3E
3E
3C
3C
78
78
70
70
E0
ENDCHAR
STARTCHAR $002C
ENCODING 44
SWIDTH 270 0
DWIDTH 9 0
BBX 5 10 2 -5
BITMAP
F8
F8
F8
F8
F8
18
18
70
E0
40
ENDCHAR
STARTCHAR $002D
ENCODING 45
SWIDTH 330 0
DWIDTH 11 0
BBX 9 4 2 6
BITMAP
FF80
FF80
FF80
FF80
ENDCHAR
STARTCHAR $0030
ENCODING 48
SWIDTH 540 0
DWIDTH 18 0
BBX 15 24 1 0
BITMAP
07C0
1FF0
3FF8
3FF8
7C7C
7C7C
783C
F83E
F83E
F83E
F83E
F83E
F83E
F83E
F83E
F83E
F83E
F83C
7C7C
7C7C
7FF8
3FF8
1FF0
07C0
ENDCHAR
STARTCHAR $0031
ENCODING 49
SWIDTH 540 0
DWIDTH 18 0
BBX 11 24 3 0
BITMAP
01E0
03E0
03E0
0FE0
1FE0
7FE0
FFE0
FBE0
E3E0
83E0
03E0
03E0
03E0
03E0
03E0
03E0
03E0
03E0
03E0
03E0
03E0
03E0
03E0
03E0
ENDCHAR
STARTCHAR $0032
ENCODING 50
SWIDTH 540 0
DWIDTH 18 0
BBX 15 24 1 0
BITMAP
07E0
1FF8
3FFC
7FFC
7C7E
F83E
F83E
F83E
003E
007C
007C
00F8
01F8
03F0
07E0
0FC0
1F80
1E00
3E00
7FFE
7FFE
7FFE
FFFE
FFFE
ENDCHAR
STARTCHAR $0033
ENCODING 51
SWIDTH 540 0
DWIDTH 18 0
BBX 15 24 1 0
BITMAP
0FC0
3FF0
7FF8
7FF8
FCFC
F87C
787C
007C
00F8
03F0
03C0
03F8
007C
003C
003E
003E
783E
F83E
FC7E
7C7C
7FFC
3FF8
1FF0
07C0
ENDCHAR
STARTCHAR $0034
ENCODING 52
SWIDTH 540 0
DWIDTH 18 0
BBX 17 24 0 0
BITMAP
007C00
007C00
00FC00
01FC00
01FC00
03FC00
07FC00
07FC00
0FFC00
0F7C00
1E7C00
3E7C00
3C7C00
7C7C00
F87C00
FFFF80
FFFF80
FFFF80
FFFF80
007C00
007C00
007C00
007C00
007C00
ENDCHAR
STARTCHAR $0035
ENCODING 53
SWIDTH 540 0
DWIDTH 18 0
BBX 15 24 1 0
BITMAP
1FFC
1FFC
3FFC
3FFC
3FFC
3E00
3C00
7C00
7FE0
7FF0
7FF8
FFFC
FC7C
783E
003E
003E
783E
F83E
FC3E
7C7C
7FFC
3FF8
1FF0
07C0
ENDCHAR
STARTCHAR $0036
ENCODING 54
SWIDTH 540 0
DWIDTH 18 0
BBX 15 24 1 0
BITMAP
03E0
0FF8
1FF8
3FFC
7C7E
7C3E
783E
F800
F800
FBE0
FFF0
FFF8
FFFC
FC7E
F83E
F83E
F83E
783E
783E
7C7C
3FFC
3FF8
1FF0
07E0
ENDCHAR
STARTCHAR $0037
ENCODING 55
SWIDTH 540 0
DWIDTH 18 0
BBX 15 24 1 0
BITMAP
FFFE
FFFE
FFFE
FFFE
FFFC
0078
0070
00F0
01E0
03E0
03C0
07C0
0780
0F80
0F80
0F00
1F00
1F00
1F00
3E00
3E00
3E00
3E00
3E00
ENDCHAR
STARTCHAR $0038
ENCODING 56
SWIDTH 540 0
DWIDTH 18 0
BBX 15 24 1 0
BITMAP
0FE0
3FF8
7FFC
7FFC
FC7E
F83E
F83E
F83E
F83E
7C7C
3FF8
1FF0
1FF0
3FF8
7C7C
F83E
F83E
F83E
F83E
FC7E
7FFC
7FFC
3FF8
0FE0
ENDCHAR
STARTCHAR $0039
ENCODING 57
SWIDTH 540 0
DWIDTH 18 0
BBX 15 24 1 0
BITMAP
0FC0
1FF0
3FF8
7FF8
FC7C
F83C
F83C
F83E
F83E
F83E
FC7E
7FFE
7FFE
3FFE
0FBE
003E
003E
F83C
F87C
FC7C
7FF8
7FF0
3FE0
0F80
ENDCHAR
STARTCHAR $004D
ENCODING 77
SWIDTH 870 0
DWIDTH 29 0
BBX 23 24 3 0
BITMAP
FE00FE
FE00FE
FE00FE
FF01FE
FF01FE
F701DE
F701DE
F783DE
F783DE
F3839E
F3839E
F3C79E
F1C71E
F1C71E
F1CF1E
F0EE1E
F0EE1E
F0EE1E
F0FE1E
F07C1E
F07C1E
F07C1E
F0381E
F0381E
ENDCHAR
STARTCHAR $0063
ENCODING 99
SWIDTH 540 0
DWIDTH 18 0
BBX 16 18 1 0
BITMAP
07F0
1FFC
3FFE
7E3E
7C1F
F81C
F800
F800
F800
F800
F800
F800
F81C
7C1F
7E3E
3FFE
1FFC
07F0
ENDCHAR
STARTCHAR $0065
ENCODING 101
SWIDTH 540 0
DWIDTH 18 0
BBX 16 18 1 0
BITMAP
07E0
1FF8
3FFC
7E3E
7C3E
F81E
F81F
FFFF
FFFF
FFFF
F800
F800
F800
7C1C
7E3F
3FFE
1FFC
07F0
ENDCHAR
STARTCHAR $0068
ENCODING 104
SWIDTH 600 0
DWIDTH 20 0
BBX 16 24 2 0
BITMAP
F800
F800
F800
F800
F800
F800
F9F8
FBFC
FFFE
FE3F
FC1F
F81F
F81F
F81F
F81F
F81F
F81F
F81F
F81F
F81F
F81F
F81F
F81F
F81F
ENDCHAR
STARTCHAR $0069
ENCODING 105
SWIDTH 270 0
DWIDTH 9 0
BBX 5 24 2 0
BITMAP
F8
F8
F8
00
00
00
F8
F8
F8
F8
F8
F8
F8
F8
F8
F8
F8
F8
F8
F8
F8
F8
F8
F8
ENDCHAR
STARTCHAR $006D
ENCODING 109
SWIDTH 870 0
DWIDTH 29 0
BBX 27 18 1 0
BITMAP
F1F83F00
F7FEFF80
FFFFFFC0
FE3FC7E0
FC1F83E0
F81F03E0
F81F03E0
F81F03E0
F81F03E0
F81F03E0
F81F03E0
F81F03E0
F81F03E0
F81F03E0
F81F03E0
F81F03E0
F81F03E0
F81F03E0
ENDCHAR
STARTCHAR $006E
ENCODING 110
SWIDTH 600 0
DWIDTH 20 0
BBX 16 18 2 0
BITMAP
F1F8
F7FC
FFFE
FE3F
FC1F
F81F
F81F
F81F
F81F
F81F
F81F
F81F
F81F
F81F
F81F
F81F
F81F
F81F
ENDCHAR
STARTCHAR $0073
ENCODING 115
SWIDTH 540 0
DWIDTH 18 0
BBX 16 18 1 0
BITMAP
07F0
1FFC
3FFE
7E3F
7C0C
7C00
7F00
7FE0
3FF8
1FFE
03FE
007F
001F
381F
FC3F
7FFE
3FFC
0FF0
ENDCHAR
ENDFONT
